<svg id="Layer_1" xmlns="http://www.w3.org/2000/svg" viewBox="0 0 1024 1024">
  <style>
    .st0{fill:#f6f6f6;fill-opacity:0}
    .st1{fill:#fff}
    .st2{fill:#4a90e2}
    .st3{fill:#2c5aa0}
  </style>
  <path class="st0" d="M1024 1024H0V0h1024v1024z"/>
  <path class="st1" d="M1024 85.333v853.333H0V85.333h1024z"/>
  <!-- Ponder Logo: Stylized "P" with thinking bubble -->
  <g>
    <!-- Main "P" shape -->
    <path class="st2" d="M150 200h200c80 0 150 70 150 150s-70 150-150 150H250v200H150V200z"/>
    <path class="st1" d="M250 300v100h100c30 0 50-20 50-50s-20-50-50-50H250z"/>
    
    <!-- Thinking bubble dots -->
    <circle class="st3" cx="600" cy="300" r="25"/>
    <circle class="st3" cx="700" cy="250" r="35"/>
    <circle class="st3" cx="820" cy="200" r="45"/>
    
    <!-- Additional design elements -->
    <path class="st2" d="M100 750h824v50H100z"/>
    <path class="st3" d="M100 820h824v30H100z"/>
  </g>
</svg>
